<svg width="24" height="24" viewBox="0 0 24 24" fill="none" xmlns="http://www.w3.org/2000/svg">
<path d="M7.31106 18.876L4.23261 21.4639C4.12328 21.5558 3.98999 21.6146 3.8484 21.6333C3.70681 21.652 3.56281 21.63 3.43334 21.5697C3.30387 21.5094 3.19431 21.4133 3.11755 21.2929C3.04078 21.1725 3 21.0326 3 20.8898V6.00006C3 5.80115 3.07902 5.61038 3.21967 5.46973C3.36032 5.32908 3.55109 5.25006 3.75 5.25006H20.25C20.4489 5.25006 20.6397 5.32908 20.7803 5.46973C20.921 5.61038 21 5.80115 21 6.00006V18.0001C21 18.199 20.921 18.3897 20.7803 18.5304C20.6397 18.671 20.4489 18.7501 20.25 18.7501H7.65665L7.31106 18.876Z" stroke="#172765" stroke-width="1.5" stroke-linecap="round" stroke-linejoin="round"/>
<path d="M9 10.5H15" stroke="#172765" stroke-width="1.5" stroke-linecap="round" stroke-linejoin="round"/>
<path d="M9 13.5H15" stroke="#172765" stroke-width="1.5" stroke-linecap="round" stroke-linejoin="round"/>
</svg>
